<?xml version="1.0" encoding="UTF-8"?>
<svg version="1.1" xmlns="http://www.w3.org/2000/svg" width="34" height="52">
<path d="M0 0 C4.96029156 2.26258913 7.34763619 5.28468657 10 10 C11.5715976 14.94781386 11.22420883 20.11110986 11.25 25.25 C11.270625 26.26191406 11.29125 27.27382813 11.3125 28.31640625 C11.34621483 34.8149398 11.25522641 41.5138599 6.54760742 46.55541992 C1.08838705 51.24149218 -2.77376769 51.34699404 -9.79296875 51.27734375 C-13.94217975 50.91852039 -16.01998713 49.90360228 -19 47 C-22.53529198 42.4937246 -23.51030176 39.55065035 -23.53125 33.84375 C-23.5350769 33.17839233 -23.53890381 32.51303467 -23.54284668 31.82751465 C-23.54555313 30.42910233 -23.53828094 29.03063828 -23.52148438 27.63232422 C-23.50005063 25.50502506 -23.5213231 23.38110175 -23.546875 21.25390625 C-23.54423149 19.88801346 -23.53910602 18.52212275 -23.53125 17.15625 C-23.52673828 15.92712891 -23.52222656 14.69800781 -23.51757812 13.43164062 C-22.73832298 8.265032 -20.23838259 5.20662919 -16.5625 1.625 C-11.10238421 -0.86557913 -5.90088116 -0.73667051 0 0 Z M-12 10 C-16.25753276 14.63054923 -15.47800734 19.52700881 -15.4375 25.5 C-15.45748047 26.54542969 -15.47746094 27.59085938 -15.49804688 28.66796875 C-15.49740234 29.67472656 -15.49675781 30.68148438 -15.49609375 31.71875 C-15.49794678 32.63591797 -15.4997998 33.55308594 -15.50170898 34.49804688 C-15.11535945 37.62367868 -15.11535945 37.62367868 -11 41 C-11 30.77 -11 20.54 -11 10 C-11.33 10 -11.66 10 -12 10 Z M-2 10 C-2 20.23 -2 30.46 -2 41 C2.16758607 38.56239481 2.16758607 38.56239481 2.51757812 35.51977539 C2.52208984 34.55547607 2.52660156 33.59117676 2.53125 32.59765625 C2.53640625 31.54255859 2.5415625 30.48746094 2.546875 29.40039062 C2.53140625 28.29888672 2.5159375 27.19738281 2.5 26.0625 C2.51546875 24.96486328 2.5309375 23.86722656 2.546875 22.73632812 C2.53914063 21.15174805 2.53914063 21.15174805 2.53125 19.53515625 C2.52673828 18.569729 2.52222656 17.60430176 2.51757812 16.60961914 C2.13011812 13.38874185 2.13011812 13.38874185 -2 10 Z " fill="#328E3D" transform="translate(23,0)"/>
<path d="M0 0 C2.64 0 5.28 0 8 0 C8.03867187 1.97033203 8.03867187 1.97033203 8.078125 3.98046875 C8.13441829 5.7161785 8.19176535 7.4518543 8.25 9.1875 C8.26417969 10.05181641 8.27835938 10.91613281 8.29296875 11.80664062 C8.45195041 15.95606203 8.67257072 18.44868745 10.828125 22.078125 C12.96523251 24.31483242 12.96523251 24.31483242 16.5 24.5625 C19.92756462 24.2509595 19.92756462 24.2509595 22.171875 22.60546875 C24.99687759 18.57923643 24.67591439 14.55882962 24.75 9.75 C24.79447266 8.34621094 24.79447266 8.34621094 24.83984375 6.9140625 C24.91038129 4.60983618 24.95747392 2.30491345 25 0 C27.97 0 30.94 0 34 0 C34.08166849 3.00056084 34.14081551 5.9988539 34.1875 9 C34.21263672 9.83917969 34.23777344 10.67835937 34.26367188 11.54296875 C34.33457664 17.64077849 33.92696503 23.8521598 29.54736328 28.56225586 C24.07777277 33.23471618 20.22965689 33.34702802 13.20703125 33.27734375 C7.76750924 32.80693442 5.36083179 30.53249064 1.86328125 26.59375 C-1.18007009 21.92627849 -0.42153678 16.48222559 -0.25 11.125 C-0.23195313 10.05507813 -0.21390625 8.98515625 -0.1953125 7.8828125 C-0.14837439 5.25427822 -0.08272933 2.62761087 0 0 Z " fill="#DCBA2B" transform="translate(0,18)"/>
</svg>
